<svg width="18" height="18" viewBox="0 0 18 18" fill="none" xmlns="http://www.w3.org/2000/svg">
<path d="M4 13H2C1.44772 13 1 12.5523 1 12V4C1 3.44772 1.44772 3 2 3H9C9.55228 3 10 3.44772 10 4V13H7" stroke="#292929"/>
<path d="M10 5H13.8435C14.2568 5 14.6276 5.25428 14.7764 5.63987L15.6858 7.99555C15.7378 8.13025 15.8183 8.25209 15.9219 8.3527L16.6968 9.10545C16.8906 9.29375 17 9.55249 17 9.82273V12C17 12.5523 16.5523 13 16 13H15M10 13H12" stroke="#292929" stroke-linecap="round"/>
<path d="M13 5V7.5C13 8.05228 13.4477 8.5 14 8.5H16" stroke="#292929" stroke-linecap="round"/>
<circle cx="5.5" cy="13.5" r="1.5" stroke="#292929"/>
<circle cx="13.5" cy="13.5" r="1.5" stroke="#292929"/>
<path d="M5.5 3V5" stroke="#292929" stroke-linecap="round"/>
</svg>
