<svg width="18" height="18" viewBox="0 0 18 18" fill="none" xmlns="http://www.w3.org/2000/svg">
<path d="M14 11V14.5059C14 15.6104 13.1046 16.5059 12 16.5059H4C2.89543 16.5059 2 15.6104 2 14.5059V8.50586C2 7.40129 2.89543 6.50586 4 6.50586H8H10.5" stroke="#292929" stroke-miterlimit="10"/>
<path d="M5 7V4C5 2.34 6.34 1 8 1C9.66 1 11 2.34 11 4V5.5V6" stroke="#292929" stroke-miterlimit="10"/>
<path d="M8.5 13C8.5 12.7239 8.27614 12.5 8 12.5C7.72386 12.5 7.5 12.7239 7.5 13L8.5 13ZM7.5 13L7.5 17L8.5 17L8.5 13L7.5 13Z" fill="#292929"/>
<rect x="10" y="5" width="6" height="6" rx="3" stroke="#292929"/>
<path d="M12 7.5L13 8.5L14 7.5" stroke="#292929" stroke-linecap="round" stroke-linejoin="round"/>
</svg>
