<svg width="24" height="24" viewBox="0 0 24 24" fill="none" xmlns="http://www.w3.org/2000/svg">
<path d="M22 6L22.5 6V6H22ZM22 9.33337V9.83337C22.2761 9.83337 22.5 9.60952 22.5 9.33337L22 9.33337ZM22 14.6667H22.5C22.5 14.3906 22.2761 14.1667 22 14.1667V14.6667ZM22 18H22.5H22ZM2 14.6667V14.1667C1.72386 14.1667 1.5 14.3906 1.5 14.6667H2ZM2 9.33337H1.5C1.5 9.60952 1.72386 9.83337 2 9.83337V9.33337ZM4 3.5C2.61929 3.5 1.5 4.61929 1.5 6H2.5C2.5 5.17157 3.17157 4.5 4 4.5V3.5ZM20 3.5H4V4.5H20V3.5ZM22.5 6C22.5 4.61929 21.3807 3.5 20 3.5V4.5C20.8284 4.5 21.5 5.17157 21.5 6H22.5ZM22.5 9.33337L22.5 6L21.5 6L21.5 9.33337L22.5 9.33337ZM20 12C20 10.7725 20.9253 9.83337 22 9.83337V8.83337C20.3132 8.83337 19 10.282 19 12H20ZM22 14.1667C20.9253 14.1667 20 13.2275 20 12H19C19 13.7181 20.3132 15.1667 22 15.1667V14.1667ZM22.5 18L22.5 14.6667H21.5L21.5 18H22.5ZM20 20.5C21.3807 20.5 22.5 19.3807 22.5 18H21.5C21.5 18.8284 20.8284 19.5 20 19.5V20.5ZM4 20.5H20V19.5H4V20.5ZM1.5 18C1.5 19.3807 2.61929 20.5 4 20.5V19.5C3.17158 19.5 2.5 18.8284 2.5 18H1.5ZM1.5 14.6667V18H2.5V14.6667H1.5ZM4 12C4 13.2275 3.07466 14.1667 2 14.1667V15.1667C3.68676 15.1667 5 13.7181 5 12H4ZM2 9.83337C3.07466 9.83337 4 10.7725 4 12H5C5 10.282 3.68676 8.83337 2 8.83337V9.83337ZM1.5 6V9.33337H2.5V6H1.5Z" fill="#292929"/>
<path d="M10.3637 14.9248C9.97111 14.9248 9.73746 14.4868 9.95609 14.1607L13.2206 9.29263C13.3117 9.15674 13.4645 9.07521 13.6281 9.07521C14.0207 9.07521 14.2543 9.51323 14.0357 9.83926L10.7712 14.7074C10.6801 14.8433 10.5273 14.9248 10.3637 14.9248ZM9.96894 12.2423C9.68992 12.2423 9.43826 12.1783 9.21395 12.0501C8.98965 11.922 8.81458 11.7382 8.68875 11.4986C8.56292 11.2535 8.5 10.961 8.5 10.6212C8.5 10.2813 8.56292 9.99164 8.68875 9.75209C8.81458 9.51253 8.98965 9.32869 9.21395 9.20056C9.43826 9.06685 9.68992 9 9.96894 9C10.2534 9 10.5051 9.06685 10.7239 9.20056C10.9482 9.32869 11.1233 9.51253 11.2491 9.75209C11.3804 9.99164 11.4461 10.2813 11.4461 10.6212C11.4461 10.9554 11.3804 11.2451 11.2491 11.4903C11.1233 11.7354 10.9482 11.922 10.7239 12.0501C10.5051 12.1783 10.2534 12.2423 9.96894 12.2423ZM9.97714 11.4485C10.1139 11.4485 10.2261 11.3844 10.3136 11.2563C10.4066 11.1281 10.4531 10.9164 10.4531 10.6212C10.4531 10.3259 10.4066 10.1142 10.3136 9.98607C10.2261 9.85794 10.1139 9.79387 9.97714 9.79387C9.84037 9.79387 9.72275 9.85794 9.62427 9.98607C9.53126 10.1142 9.48476 10.3259 9.48476 10.6212C9.48476 10.9164 9.53126 11.1281 9.62427 11.2563C9.72275 11.3844 9.84037 11.4485 9.97714 11.4485ZM14.0229 15C13.7384 15 13.484 14.9359 13.2597 14.8078C13.0408 14.6797 12.8685 14.4958 12.7427 14.2563C12.6168 14.0111 12.5539 13.7187 12.5539 13.3788C12.5539 13.039 12.6168 12.7493 12.7427 12.5097C12.8685 12.2702 13.0408 12.0864 13.2597 11.9582C13.484 11.8245 13.7384 11.7577 14.0229 11.7577C14.3073 11.7577 14.559 11.8245 14.7778 11.9582C15.0022 12.0864 15.1772 12.2702 15.3031 12.5097C15.4344 12.7493 15.5 13.039 15.5 13.3788C15.5 13.7187 15.4344 14.0111 15.3031 14.2563C15.1772 14.4958 15.0022 14.6797 14.7778 14.8078C14.559 14.9359 14.3073 15 14.0229 15ZM14.0229 14.2061C14.1596 14.2061 14.2745 14.1421 14.3675 14.0139C14.4605 13.8858 14.507 13.6741 14.507 13.3788C14.507 13.0836 14.4605 12.8719 14.3675 12.7437C14.2745 12.6156 14.1596 12.5515 14.0229 12.5515C13.8916 12.5515 13.7767 12.6156 13.6782 12.7437C13.5852 12.8719 13.5387 13.0836 13.5387 13.3788C13.5387 13.6741 13.5852 13.8858 13.6782 14.0139C13.7767 14.1421 13.8916 14.2061 14.0229 14.2061Z" fill="#292929"/>
</svg>
